<?xml version="1.0" encoding="UTF-8"?>
<svg id="Layer_2" data-name="Layer 2" xmlns="http://www.w3.org/2000/svg" viewBox="0 0 673.04 673.04">
  <defs>
    <style>
      .cls-1 {
        fill: #f2f2f2;
      }

      .cls-1, .cls-2, .cls-3, .cls-4, .cls-5, .cls-6 {
        stroke-width: 0px;
      }

      .cls-2 {
        fill: gray;
      }

      .cls-3 {
        fill: #999;
      }

      .cls-4 {
        fill: red;
      }

      .cls-5 {
        fill: lime;
      }

      .cls-6 {
        fill: blue;
      }
    </style>
  </defs>
  <g id="Layer_1-2" data-name="Layer 1">
    <path class="cls-3" d="M524.08,597.64c143.99-103.42,176.87-303.99,73.45-447.98-58.33-81.21-147.57-127.09-240.13-133.08-54.93-3.57-111.03,6.91-162.53,32.37-7.97,3.94-15.83,8.23-23.56,12.91-7.39,4.44-14.65,9.23-21.77,14.34C69.68,133.58,24,220.83,16.8,311.75c-.8,10.19-1.13,20.44-.97,30.69.5,30.13,5.22,60.34,14.34,89.68,9.97,32.14,25.22,63.24,45.93,92.07,103.42,143.99,303.99,176.87,447.98,73.45ZM226.07,347.7c-.45-4.92-.59-9.85-.38-14.76,1.32-33.13,17.35-65.33,46.37-86.17,4.69-3.37,9.56-6.33,14.55-8.88,4.15-2.11,8.38-3.94,12.67-5.48,10.78-3.89,21.98-6.03,33.16-6.49,36.22-1.49,72.48,14.71,95.22,46.36,35.92,50.02,24.5,119.68-25.51,155.61s-119.68,24.5-155.61-25.51c-4.28-5.95-7.88-12.19-10.82-18.61-5.34-11.58-8.51-23.78-9.65-36.06Z"/>
    <path class="cls-3" d="M532.83,609.83c150.94-108.42,185.41-318.67,77-469.61C548.93,55.43,455.89,7.39,359.29.79c-58.23-3.99-117.77,7.09-172.34,34.25-8.26,4.1-16.4,8.58-24.41,13.43-7.57,4.58-15.01,9.49-22.32,14.74C56.48,123.36,8.59,214.84,1.05,310.16c-.84,10.59-1.17,21.23-1.01,31.89.48,31.47,5.38,63.03,14.85,93.68,10.45,33.9,26.49,66.7,48.32,97.1,108.42,150.94,318.67,185.41,469.61,77ZM30.17,432.12c-9.12-29.35-13.84-59.56-14.34-89.68-.16-10.25.16-20.49.97-30.69,7.2-90.92,52.88-178.17,132.75-235.54,7.12-5.12,14.39-9.9,21.77-14.34,7.72-4.67,15.59-8.97,23.56-12.91,51.5-25.46,107.6-35.94,162.53-32.37,92.56,5.99,181.8,51.86,240.13,133.08,103.42,143.99,70.54,344.56-73.45,447.98-143.99,103.42-344.56,70.54-447.98-73.45-20.71-28.83-35.95-59.93-45.93-92.07Z"/>
    <path class="cls-1" d="M524.08,597.64c143.99-103.42,176.87-303.99,73.45-447.98-58.33-81.21-147.57-127.09-240.13-133.08-54.93-3.57-111.03,6.91-162.53,32.37-7.97,3.94-15.83,8.23-23.56,12.91-7.39,4.44-14.65,9.23-21.77,14.34C69.68,133.58,24,220.83,16.8,311.75c-.8,10.19-1.13,20.44-.97,30.69.5,30.13,5.22,60.34,14.34,89.68,9.97,32.14,25.22,63.24,45.93,92.07,103.42,143.99,303.99,176.87,447.98,73.45ZM226.07,347.7c-.45-4.92-.59-9.85-.38-14.76,1.32-33.13,17.35-65.33,46.37-86.17,4.69-3.37,9.56-6.33,14.55-8.88,4.15-2.11,8.38-3.94,12.67-5.48,10.78-3.89,21.98-6.03,33.16-6.49,36.22-1.49,72.48,14.71,95.22,46.36,35.92,50.02,24.5,119.68-25.51,155.61s-119.68,24.5-155.61-25.51c-4.28-5.95-7.88-12.19-10.82-18.61-5.34-11.58-8.51-23.78-9.65-36.06Z"/>
    <path class="cls-2" d="M402.15,427.89c50.02-35.92,61.44-105.59,25.51-155.61-22.73-31.65-58.99-47.85-95.22-46.36-11.19.45-22.38,2.59-33.16,6.49-4.29,1.55-8.52,3.38-12.67,5.48-4.99,2.55-9.86,5.51-14.55,8.88-29.02,20.84-45.05,53.04-46.37,86.17-.2,4.91-.07,9.84.38,14.76,1.14,12.28,4.31,24.48,9.65,36.06,2.94,6.42,6.54,12.66,10.82,18.61,35.92,50.02,105.59,61.44,155.61,25.51ZM293.24,277.12c32.75-23.52,78.36-16.04,101.88,16.7s16.04,78.36-16.7,101.88c-32.75,23.52-78.36,16.04-101.88-16.7-23.52-32.75-16.04-78.36,16.7-101.88Z"/>
    <path class="cls-6" d="M16.8,311.75c7.2-90.92,52.88-178.17,132.75-235.54,7.12-5.12,14.39-9.9,21.77-14.34l115.29,176.03c-4.99,2.55-9.86,5.51-14.55,8.88-29.02,20.84-45.05,53.04-46.37,86.17l-208.9-21.2Z"/>
    <path class="cls-5" d="M30.17,432.12c-9.12-29.35-13.84-59.56-14.34-89.68l210.25,5.27c1.14,12.28,4.31,24.48,9.65,36.06l-205.55,48.36Z"/>
    <path class="cls-4" d="M299.28,232.41L194.87,48.96c51.5-25.46,107.6-35.94,162.53-32.37l-24.95,209.34c-11.19.45-22.38,2.59-33.16,6.49Z"/>
  </g>
</svg>